# xmcd
# 
# Track frame offsets:
#     150
#     14930
#     32244
#     48302
#     64067
#     77147
#     93570
#     111195
#     129475
#     147047
#     169960
#     184980
# 
# Disc length: 2711
# 
# Revision: 8
# Processed by: cddbd v1.5.2PL0 Copyright (c) Steve Scherf et al.
# Submitted via: fre:ac v1.0.17
# 
DISCID=ad0a950c
DTITLE=Mary Chapin Carpenter - A Place In The World
DYEAR=1996
DGENRE=Country
TTITLE0=Keeping The Faith
TTITLE1=Hero In Your Own Hometown
TTITLE2=I Can See It Now
TTITLE3=I Want To Be Your Girlfriend
TTITLE4=Let Me Into Your Heart
TTITLE5=What If We Went To Italy
TTITLE6=That's Real
TTITLE7=Ideas Are Like Stars
TTITLE8=Naked To The Eye
TTITLE9=Sudden Gift Of Fate
TTITLE10=The Better To Dream Of You
TTITLE11=A Place In The World
EXTD=
EXTT0=
EXTT1=
EXTT2=
EXTT3=
EXTT4=
EXTT5=
EXTT6=
EXTT7=
EXTT8=
EXTT9=
EXTT10=
EXTT11=
PLAYORDER=
